<svg width="168" height="48" viewBox="0 0 168 48" fill="none" xmlns="http://www.w3.org/2000/svg">
<path d="M0 23.9894C0 25.2175 0.0846461 26.4243 0.275098 27.61C3.4493 25.895 6.39073 23.693 9.01474 21.0675C14.7071 15.3718 18.3469 8.1729 19.5954 0.381104C8.46454 2.45609 0 12.2382 0 23.9894Z" fill="#7AAFDE"/>
<path d="M23.997 48C33.837 48 42.2804 42.0927 45.9836 33.6233C41.5397 31.8024 36.7573 30.8496 31.8055 30.8496C22.4099 30.8496 13.5433 34.3009 6.66583 40.6105C11.0462 45.1628 17.183 48 23.997 48Z" fill="#262E59"/>
<path d="M47.5072 19.1408C45.8355 10.9678 39.9949 4.31941 32.3345 1.48218C33.6889 9.80331 39.6352 16.6 47.5072 19.1408Z" fill="#FFA656"/>
<path d="M28.8641 0.486988C27.2981 0.169388 25.6687 0 23.9969 0C23.6584 0 23.3198 1.292e-06 23.0024 0.0211746C21.7962 8.85046 17.7543 17.0234 11.3636 23.4177C8.29521 26.4879 4.80359 29.0287 1.03687 30.9554C1.81984 33.5386 3.02603 35.9312 4.54965 38.0697C12.0408 31.273 21.6269 27.5465 31.8055 27.5465C37.1381 27.5465 42.3015 28.5629 47.084 30.5108C47.6553 28.4358 47.9728 26.255 47.9728 23.9894C47.9728 23.5659 47.9516 23.1213 47.9304 22.6978C37.7307 20.0723 29.9644 11.2431 28.8641 0.486988Z" fill="#E6EAED"/>
<path d="M167.894 30.5532C167.852 30.3627 167.767 30.1933 167.683 30.0451C167.598 29.8969 167.492 29.7486 167.344 29.6216C167.217 29.4946 167.069 29.3887 166.921 29.2828C166.773 29.1981 166.603 29.1134 166.413 29.0711C166.053 28.9652 165.651 28.9652 165.291 29.0711C165.122 29.1134 164.953 29.1981 164.783 29.2828C164.635 29.3675 164.487 29.4734 164.36 29.6216C164.233 29.7486 164.106 29.8969 164.022 30.0451C163.937 30.1933 163.852 30.3627 163.81 30.5532C163.747 30.7226 163.725 30.9132 163.725 31.1037C163.725 31.2943 163.747 31.4849 163.81 31.6754C163.852 31.8448 163.937 32.0142 164.022 32.1836C164.106 32.3318 164.212 32.48 164.36 32.6071C164.487 32.7341 164.635 32.84 164.783 32.9247C164.932 33.0093 165.101 33.094 165.291 33.1364C165.461 33.1787 165.651 33.2211 165.863 33.2211C166.053 33.2211 166.244 33.1999 166.434 33.1364C166.603 33.094 166.773 33.0093 166.942 32.9247C167.09 32.84 167.238 32.7129 167.365 32.6071C167.492 32.48 167.598 32.3318 167.704 32.1836C167.788 32.0354 167.873 31.8448 167.915 31.6754C167.958 31.4849 168 31.3155 168 31.1249C167.958 30.9132 167.936 30.7226 167.894 30.5532ZM166.18 30.8708C166.138 30.9132 166.095 30.9132 166.032 30.9344C165.968 30.9555 165.884 30.9344 165.778 30.9344H165.418V30.2992H165.82C165.905 30.2992 165.99 30.278 166.053 30.278C166.117 30.2992 166.159 30.2992 166.18 30.3203C166.222 30.3415 166.244 30.3838 166.244 30.405C166.265 30.4474 166.265 30.5109 166.265 30.5744C166.265 30.6379 166.265 30.7014 166.244 30.7438C166.222 30.8073 166.201 30.8497 166.18 30.8708ZM166.371 31.4002C166.349 31.3578 166.328 31.3155 166.307 31.2943C166.455 31.2308 166.582 31.1461 166.688 31.0402C166.794 30.9132 166.857 30.7438 166.857 30.5532C166.857 30.2992 166.773 30.1721 166.603 30.0451C166.434 29.918 166.18 29.918 165.842 29.918H165.016V32.4588H165.439V31.4002H165.693C165.736 31.4002 165.757 31.4425 165.778 31.4425C165.799 31.4425 165.799 31.4849 165.82 31.4849L166.392 32.353C166.434 32.4165 166.498 32.4588 166.582 32.4588H167.027C166.9 32.6706 166.73 32.6706 166.561 32.7553C166.222 32.9035 165.799 32.9247 165.439 32.8188C165.291 32.7764 165.143 32.7129 165.016 32.6494C164.889 32.5647 164.783 32.48 164.678 32.3741C164.572 32.2683 164.487 32.1412 164.403 32.0142C164.339 31.8872 164.276 31.7389 164.233 31.5907C164.191 31.4425 164.17 31.2943 164.17 31.1249C164.17 30.892 164.212 30.6591 164.297 30.4474C164.381 30.2356 164.508 30.0451 164.656 29.8969C164.805 29.7275 164.995 29.6216 165.207 29.5157C165.418 29.431 165.63 29.3887 165.884 29.3887C166.053 29.3887 166.201 29.4099 166.349 29.4522C166.498 29.4946 166.624 29.5581 166.751 29.6216C166.878 29.7063 167.005 29.791 167.09 29.8969C167.196 30.0027 167.28 30.1298 167.365 30.2568C167.45 30.3838 167.492 30.5321 167.534 30.6803C167.577 30.8285 167.598 30.9767 167.598 31.1461C167.598 31.379 167.556 31.6119 167.471 31.8236C167.386 32.0354 167.259 32.2259 167.111 32.3741C167.09 32.3741 167.09 32.3953 167.09 32.3953L166.371 31.4002Z" fill="#262E59"/>
<path d="M75.292 16.1765V23.7777C75.292 25.2811 75.2074 26.0645 74.9958 27.0808C74.8053 28.0336 74.4667 28.4994 73.8954 29.0287C73.1336 29.7486 71.4195 30.1086 68.9436 30.1086C65.325 30.1086 64.0554 29.3463 63.3147 28.203C63.0396 27.716 62.7857 26.742 62.6799 25.5987C62.6587 25.1117 62.5952 24.5188 62.5952 23.7566V16.1553C62.5952 15.139 61.8757 14.3979 60.86 14.3979H58.9978V23.7777C58.9978 25.3446 59.1036 26.4032 59.3364 27.6736C59.5903 29.0287 60.077 29.918 60.7119 30.8073C62.0662 32.6282 64.8383 33.5598 68.9648 33.5598C73.4933 33.5598 76.2866 32.4376 77.7256 30.0239C78.5509 28.4994 78.8895 26.6997 78.8895 23.7777V14.4191H77.0273C76.0327 14.4403 75.292 15.1814 75.292 16.1765Z" fill="#262E59"/>
<path d="M106.822 16.1763V33.2632H108.727C109.743 33.2632 110.632 32.3951 110.632 31.3788V14.4189H108.727C107.711 14.4401 106.822 15.1812 106.822 16.1763Z" fill="#262E59"/>
<path d="M99.2044 16.2187V28.5839C96.7074 25.789 87.3541 15.3717 86.9731 15.0541C86.4653 14.6307 85.9151 14.4401 85.3226 14.4401H84.1375C83.1218 14.4401 82.2753 15.1812 82.2753 16.1975V33.2844H84.1375C85.1533 33.2844 85.9574 32.4375 85.9574 31.4212V19.1406C88.2852 21.7449 97.7019 32.2469 98.0405 32.6069C98.5061 33.0938 99.2044 33.1997 99.7123 33.2209H101.151C102.061 33.1362 102.781 32.374 102.781 31.4423V14.4189H101.024C100.03 14.4401 99.2044 15.2235 99.2044 16.2187Z" fill="#262E59"/>
<path d="M137.485 28.1816V16.1763C137.485 15.16 136.766 14.4189 135.75 14.4189H133.888V28.6474C133.888 31.1671 135.983 33.2844 138.501 33.2844H149.061C150.013 33.2844 150.796 32.4586 150.796 31.5058V29.6849H139.157C138.311 29.6849 137.485 29.0709 137.485 28.1816Z" fill="#262E59"/>
<path d="M114.568 18.8654V32.7551V33.2632H116.409C117.424 33.2632 118.25 32.3951 118.25 31.3788V26.8901C118.25 26.0643 118.906 25.4291 119.837 25.4291H127.159C128.09 25.4291 128.83 24.7092 128.83 23.7776V22.0414H119.16C118.842 22.0414 118.461 22.1049 118.25 22.1684V19.3735C118.25 18.5054 118.948 17.8067 119.837 17.8067H129.804C130.756 17.8067 131.581 17.0021 131.581 16.0493V14.4189H119.16C116.641 14.4401 114.631 16.3457 114.568 18.8654Z" fill="#262E59"/>
<path d="M165.249 14.4401C164.233 14.4401 163.514 15.1812 163.514 16.1975V17.7643C163.514 19.2676 163.429 20.0511 163.218 21.0674C163.048 22.0202 162.688 22.486 162.117 23.0153C161.355 23.7352 159.641 24.1163 157.165 24.1163C153.547 24.1163 152.277 23.3541 151.536 22.2107C151.261 21.7238 151.05 20.7498 150.944 19.6064C150.923 19.2253 150.923 17.2562 150.923 16.2399C150.923 15.2235 150.097 14.4401 149.082 14.4401H147.22V17.7643C147.22 19.3312 147.325 20.3898 147.558 21.6391C147.812 22.9942 148.299 23.8834 148.934 24.7727C149.907 26.0855 151.6 26.9324 154.012 27.2923C154.753 27.4406 155.261 28.0758 155.261 28.8168V33.2632H157.165C158.16 33.2632 158.985 32.4163 158.985 31.4212V28.3722C158.985 28.0758 158.943 27.7582 158.879 27.4617C162.435 27.2077 164.699 26.1066 165.947 23.9893C166.751 22.4648 167.111 20.6439 167.111 17.7432V14.4189H165.249V14.4401Z" fill="#262E59"/>
</svg>
